<?xml version="1.0" encoding="UTF-8"?>
<svg width="61px" height="48px" viewBox="0 0 61 48" version="1.1" xmlns="http://www.w3.org/2000/svg" xmlns:xlink="http://www.w3.org/1999/xlink">
    <title>Shape_1_</title>
    <defs>
        <filter x="-15.4%" y="-12.1%" width="130.8%" height="124.2%" filterUnits="objectBoundingBox" id="filter-1">
            <feOffset dx="0" dy="2" in="SourceAlpha" result="shadowOffsetOuter1"></feOffset>
            <feGaussianBlur stdDeviation="2" in="shadowOffsetOuter1" result="shadowBlurOuter1"></feGaussianBlur>
            <feColorMatrix values="0 0 0 0 0   0 0 0 0 0   0 0 0 0 0  0 0 0 0.5 0" type="matrix" in="shadowBlurOuter1" result="shadowMatrixOuter1"></feColorMatrix>
            <feMerge>
                <feMergeNode in="shadowMatrixOuter1"></feMergeNode>
                <feMergeNode in="SourceGraphic"></feMergeNode>
            </feMerge>
        </filter>
    </defs>
    <g id="Page-1" stroke="none" stroke-width="1" fill="none" fill-rule="evenodd">
        <g id="Mitos_criaturas_heroes" transform="translate(-316.000000, -364.000000)" fill="#FFFFFF" fill-rule="nonzero">
            <g id="Filtros" transform="translate(25.000000, 351.000000)">
                <g id="btn_criaturas" filter="url(#filter-1)" transform="translate(283.000000, 0.000000)">
                    <g id="Criaturas" transform="translate(11.000000, 15.000000)">
                        <path d="M49.865625,16.9162117 C48.515625,14.8258934 44.2546875,13.4462834 42.0609375,12.8609942 C43.9171875,12.610156 47.2921875,13.6135088 48.684375,14.6168616 C50.6671875,16.038278 51.721875,17.292469 51.721875,17.292469 C51.721875,17.292469 54.928125,11.8158351 51.3421875,10.2271932 C48.9796875,9.14022767 47.671875,10.8124823 47.671875,10.8124823 C47.671875,10.8124823 44.3390625,5.58668657 40.753125,5.58668657 C37.1671875,5.58668657 33.834375,2.82746642 32.7796875,0.528116295 C31.725,-1.77123383 31.809375,4.0816574 33.496875,5.75391203 C35.184375,7.42616667 29.278125,4.16527013 29.278125,4.16527013 L30.54375,8.09506852 L25.6078125,9.60009769 L28.4765625,11.1887396 L25.059375,14.7422807 L28.4765625,15.9964717 L25.9453125,21.2222674 L29.784375,21.2222674 L33.91875,26.197225 C33.91875,26.197225 23.9625,24.0232939 23.4140625,16.4145353 C22.6546875,5.08501018 0.6328125,22.2256202 0,22.7272966 C0.3796875,22.6436839 8.184375,21.0550419 9.196875,26.8661268 C10.7578125,35.9381082 15.6515625,21.8911693 17.1703125,36.8996546 C17.1703125,36.8996546 39.6984375,46.6405379 44.128125,31.5902462 C46.0265625,25.1102594 35.521875,18.3376282 32.990625,13.864347 C34.4671875,16.2055035 39.3609375,16.832599 41.175,17.3760817 C45.1828125,20.6369783 47.8828125,18.2540154 47.8828125,18.2540154 C47.8828125,18.2540154 40.921875,16.0800844 40.7953125,13.9479597 C42.9046875,14.4496361 47.5453125,15.8710526 48.684375,17.6269199 C50.4984375,20.4279465 53.7890625,20.5115592 53.9578125,20.5115592 L54,19.1319491 C53.9578125,19.1737555 51.2578125,19.0901428 49.865625,16.9162117 Z M50,13 C50.55,13 51,13.2083333 51,13.5 C51,13.7916667 50.55,14 50,14 C49.45,14 49,13.75 49,13.5 C49,13.25 49.45,13 50,13 Z M41.9803922,8 C42.5294118,8 43,8.45 43,9 C43,9.55 42.5686275,10 41.9803922,10 C41.4313725,10 41,9.55 41,9 C41,8.45 41.4313725,8 41.9803922,8 Z" id="Shape_1_"></path>
                    </g>
                </g>
            </g>
        </g>
    </g>
</svg>