<?xml version="1.0" encoding="UTF-8"?>
<svg width="58px" height="58px" viewBox="0 0 58 58" version="1.1" xmlns="http://www.w3.org/2000/svg" xmlns:xlink="http://www.w3.org/1999/xlink">
    <title>th-solid</title>
    <defs>
        <filter x="-15.4%" y="-12.1%" width="130.8%" height="124.2%" filterUnits="objectBoundingBox" id="filter-1">
            <feOffset dx="0" dy="2" in="SourceAlpha" result="shadowOffsetOuter1"></feOffset>
            <feGaussianBlur stdDeviation="2" in="shadowOffsetOuter1" result="shadowBlurOuter1"></feGaussianBlur>
            <feColorMatrix values="0 0 0 0 0   0 0 0 0 0   0 0 0 0 0  0 0 0 0.5 0" type="matrix" in="shadowBlurOuter1" result="shadowMatrixOuter1"></feColorMatrix>
            <feMerge>
                <feMergeNode in="shadowMatrixOuter1"></feMergeNode>
                <feMergeNode in="SourceGraphic"></feMergeNode>
            </feMerge>
        </filter>
    </defs>
    <g id="Page-1" stroke="none" stroke-width="1" fill="none" fill-rule="evenodd">
        <g id="Mitos_criaturas_heroes" transform="translate(-36.000000, -359.000000)">
            <g id="btn_todos" transform="translate(25.000000, 351.000000)" filter="url(#filter-1)">
                <g id="th-solid" transform="translate(20.000000, 17.000000)">
                    <circle id="Oval" fill="#FFFFFF" cx="20" cy="20" r="20"></circle>
                    <path d="M15.2826511,11.6075515 L15.2826511,15.2116705 C15.2826511,15.8088279 14.7889365,16.2929062 14.1798917,16.2929062 L9.52381199,16.2929062 C8.91476718,16.2929062 8.42105263,15.8088279 8.42105263,15.2116705 L8.42105263,11.6075515 C8.42105263,11.010394 8.91476718,10.5263158 9.52381199,10.5263158 L14.1798917,10.5263158 C14.7889365,10.5263158 15.2826511,11.010394 15.2826511,11.6075515 Z M22.8596491,21.7982609 L22.8596491,18.1941419 C22.8596491,17.5969844 22.3659379,17.1129062 21.7568972,17.1129062 L17.1008027,17.1129062 C16.4917619,17.1129062 15.9980507,17.5969844 15.9980507,18.1941419 L15.9980507,21.7982609 C15.9980507,22.3954183 16.4917619,22.8794966 17.1008027,22.8794966 L21.7568512,22.8794966 C22.3659379,22.8794966 22.8596491,22.3954183 22.8596491,21.7982609 L22.8596491,21.7982609 Z M23.7173489,11.6075515 L23.7173489,15.2116705 C23.7173489,15.8088279 24.2110635,16.2929062 24.8201083,16.2929062 L29.476188,16.2929062 C30.0852328,16.2929062 30.5789474,15.8088279 30.5789474,15.2116705 L30.5789474,11.6075515 C30.5789474,11.010394 30.0852328,10.5263158 29.476188,10.5263158 L24.8201083,10.5263158 C24.2110635,10.5263158 23.7173489,11.010394 23.7173489,11.6075515 L23.7173489,11.6075515 Z M22.8596491,15.2116705 L22.8596491,11.6075515 C22.8596491,11.010394 22.3659379,10.5263158 21.7568972,10.5263158 L17.1008027,10.5263158 C16.4917619,10.5263158 15.9980507,11.010394 15.9980507,11.6075515 L15.9980507,15.2116705 C15.9980507,15.8088279 16.4917619,16.2929062 17.1008027,16.2929062 L21.7568512,16.2929062 C22.3659379,16.2929062 22.8596491,15.8088279 22.8596491,15.2116705 L22.8596491,15.2116705 Z M14.1798917,17.1167048 L9.52381199,17.1167048 C8.91476718,17.1167048 8.42105263,17.600783 8.42105263,18.1979405 L8.42105263,21.8020595 C8.42105263,22.399217 8.91476718,22.8832952 9.52381199,22.8832952 L14.1798917,22.8832952 C14.7889365,22.8832952 15.2826511,22.399217 15.2826511,21.8020595 L15.2826511,18.1979405 C15.2826511,17.600783 14.7889365,17.1167048 14.1798917,17.1167048 L14.1798917,17.1167048 Z M8.42105263,24.7883295 L8.42105263,28.3924485 C8.42105263,28.989606 8.91476718,29.4736842 9.52381199,29.4736842 L14.1798917,29.4736842 C14.7889365,29.4736842 15.2826511,28.989606 15.2826511,28.3924485 L15.2826511,24.7883295 C15.2826511,24.1911721 14.7889365,23.7070938 14.1798917,23.7070938 L9.52381199,23.7070938 C8.91476718,23.7070938 8.42105263,24.1911721 8.42105263,24.7883295 Z M24.8201083,22.8832952 L29.476188,22.8832952 C30.0852328,22.8832952 30.5789474,22.399217 30.5789474,21.8020595 L30.5789474,18.1979405 C30.5789474,17.600783 30.0852328,17.1167048 29.476188,17.1167048 L24.8201083,17.1167048 C24.2110635,17.1167048 23.7173489,17.600783 23.7173489,18.1979405 L23.7173489,21.8020595 C23.7173489,22.399217 24.2110635,22.8832952 24.8201083,22.8832952 Z M24.8201083,29.4736842 L29.476188,29.4736842 C30.0852328,29.4736842 30.5789474,28.989606 30.5789474,28.3924485 L30.5789474,24.7883295 C30.5789474,24.1911721 30.0852328,23.7070938 29.476188,23.7070938 L24.8201083,23.7070938 C24.2110635,23.7070938 23.7173489,24.1911721 23.7173489,24.7883295 L23.7173489,28.3924485 C23.7173489,28.989606 24.2110635,29.4736842 24.8201083,29.4736842 Z M16.1403509,24.7807323 L16.1403509,28.3848513 C16.1403509,28.9820087 16.6340654,29.466087 17.2431102,29.466087 L21.89919,29.466087 C22.5082348,29.466087 23.0019493,28.9820087 23.0019493,28.3848513 L23.0019493,24.7807323 C23.0019493,24.1835748 22.5082348,23.6994966 21.89919,23.6994966 L17.2431102,23.6994966 C16.6340654,23.6994966 16.1403509,24.1835748 16.1403509,24.7807323 Z" id="Shape" fill="#040506" fill-rule="nonzero"></path>
                </g>
            </g>
        </g>
    </g>
</svg>